<?xml version="1.0" encoding="UTF-8" standalone="no"?>
<svg
   xmlns:dc="http://purl.org/dc/elements/1.1/"
   xmlns:cc="http://creativecommons.org/ns#"
   xmlns:rdf="http://www.w3.org/1999/02/22-rdf-syntax-ns#"
   xmlns:svg="http://www.w3.org/2000/svg"
   xmlns="http://www.w3.org/2000/svg"
   viewBox="0 0 600 187.52"
   height="187.52"
   width="600"
   id="svg815"
   version="1.1">
  <metadata
     id="metadata821">
    <rdf:RDF>
      <cc:Work
         rdf:about="">
        <dc:format>image/svg+xml</dc:format>
        <dc:type
           rdf:resource="http://purl.org/dc/dcmitype/StillImage" />
        <dc:title></dc:title>
      </cc:Work>
    </rdf:RDF>
  </metadata>
  <defs
     id="defs819" />
  <g
     id="g849">
    <path
       id="path857"
       d="M 8.8,118.58644 C 4.2830947,116.57029 4.4497222,109.92256 9.060832,108.18036 L 9.9616637,107.84 H 294.88 579.79834 l 0.90083,0.34036 c 2.05053,0.77474 3.62083,3.05578 3.62083,5.25964 0,2.20386 -1.5703,4.4849 -3.62083,5.25964 L 579.79834,119.04 294.77917,119.02748 9.76,119.01495 Z M 179.63154,88.645005 C 176.06125,88.138403 173.32061,87.32248 170.24,85.849027 l -3.04,-1.454029 -2.73582,-2.7575 c -3.13211,-3.156928 -4.5913,-5.654666 -5.91764,-10.129412 L 157.69643,68.64 157.52507,64.108848 c -0.42008,-11.10825 2.97333,-22.873747 8.8838,-30.801523 5.59697,-7.507269 13.13539,-12.326617 22.4063,-14.324449 L 191.52,18.4 l 6.08,0.014 6.08,0.014 2.88,0.716315 c 1.584,0.393973 4.23828,1.375668 5.8984,2.181544 l 3.01841,1.465228 2.5943,2.604454 2.59431,2.604453 1.50334,2.923176 c 3.32089,6.457355 3.93783,14.645419 1.85033,24.557886 -3.74284,17.772781 -14.41427,29.181604 -30.57909,32.69208 -2.66872,0.579562 -11.0347,0.865444 -13.80846,0.471863 z m 9.77177,-5.46417 c 9.0325,-2.082365 14.98278,-12.984336 17.97903,-32.940835 0.48368,-3.221539 0.70132,-6.2052 0.71193,-9.76 l 0.0153,-5.12 -0.54067,-2.205254 c -1.04989,-4.282174 -2.8571,-6.909121 -5.8089,-8.443703 l -1.6,-0.83181 -3.04,-0.131891 -3.04,-0.131891 -2.06273,0.696808 c -6.76958,2.28682 -11.366,8.996189 -14.58371,21.287741 -3.54538,13.543274 -3.97788,26.545466 -1.07244,32.240605 0.82142,1.610121 2.7007,3.670438 3.93483,4.313894 2.51841,1.313056 6.10868,1.717655 9.10736,1.026336 z M 19.310494,87.12 c 0.08449,-0.308 0.243121,-1.136 0.352508,-1.84 0.109387,-0.704 0.277402,-1.676 0.373367,-2.16 l 0.174483,-0.88 H 24.185426 28.16 l 0.0039,-0.4 C 28.166,81.62 30.389371,68.77625 33.10467,53.29833 35.819932,37.820413 37.969695,25.040412 37.881884,24.898331 37.794074,24.756249 36.074726,24.64 34.061114,24.64 H 30.4 v -0.523105 c 0,-0.287707 0.169987,-1.445655 0.377748,-2.573216 l 0.377748,-2.050111 20.342251,0.0972 20.342253,0.0972 2.24,0.752064 c 3.227078,1.083469 4.529581,1.820098 6.49864,3.675298 2.136445,2.012904 3.031667,3.386346 3.923558,6.019475 l 0.685968,2.025187 -0.01546,3.2 c -0.01923,3.984102 -0.831462,7.33143 -2.678828,11.04 l -1.354925,2.72 -2.729479,2.73391 -2.729478,2.733908 -2.892371,1.486227 c -1.590807,0.817427 -3.966807,1.804681 -5.28,2.193901 L 65.12,58.975619 56.64,59.114512 c -4.664,0.07639 -8.588432,0.242512 -8.72096,0.369152 C 47.717091,59.67664 43.84,81.016925 43.84,81.935507 43.84,82.11504 45.871366,82.24 48.789958,82.24 h 4.949956 l -0.129268,0.4 c -0.0711,0.22 -0.29559,1.444 -0.49887,2.72 l -0.3696,2.32 H 35.949523 19.156872 Z M 54.835046,53.776205 C 62.437971,52.796493 67.903968,45.269338 67.975971,35.68 l 0.02403,-3.2 -0.570761,-1.634973 c -0.695826,-1.993232 -2.43381,-4.090695 -4.089506,-4.935367 -2.039817,-1.040638 -8.937763,-1.7295 -9.424947,-0.94122 -0.297094,0.480711 -5.218685,28.588258 -5.055366,28.87156 0.18432,0.319734 3.253587,0.28697 5.975629,-0.0638 z M 82.670493,87.12 c 0.08449,-0.308 0.243123,-1.136 0.352509,-1.84 0.109388,-0.704 0.277401,-1.676 0.373366,-2.16 l 0.174483,-0.88 H 87.545427 91.52 l 0.0039,-0.4 C 91.5261,81.62 93.749372,68.77625 96.464671,53.29833 99.179946,37.820413 101.32971,25.040412 101.2419,24.898331 101.15407,24.756249 99.434726,24.64 97.421114,24.64 H 93.76 v -0.523105 c 0,-0.287707 0.169971,-1.445575 0.377715,-2.573038 l 0.377715,-2.049933 20.66229,0.10288 20.66228,0.10288 1.92,0.557076 c 8.22349,2.385993 12.07569,7.901293 11.06126,15.83669 -0.676,5.288067 -2.30218,8.83815 -5.48148,11.966521 l -2.17481,2.139975 -2.66249,1.280166 c -2.33156,1.121056 -6.10877,2.298291 -8.58248,2.674886 l -0.8,0.121789 1.44,0.408621 c 2.91024,0.825814 4.87904,2.493264 6.35132,5.379168 0.53371,1.04616 6.76868,21.31384 6.76868,22.002586 0,0.09506 1.4497,0.172838 3.22156,0.172838 h 3.22157 l -0.15362,0.56 c -0.0845,0.308 -0.24313,1.136 -0.35251,1.84 -0.10939,0.704 -0.2774,1.676 -0.37337,2.16 l -0.17448,0.88 H 139.02812 128.9871 l -0.68053,-2.32 c -4.15156,-14.153069 -6.89441,-22.842163 -7.75098,-24.554355 l -1.03776,-2.074352 -1.40335,-0.774138 -1.40336,-0.774134 -2.59542,-0.03152 -2.59542,-0.03152 -2.13937,12 c -1.17666,6.6 -2.14872,12.252 -2.16015,12.56 L 107.2,82.24 h 3.8809 3.8809 l -0.21773,1.36 c -0.11975,0.748 -0.30173,1.972 -0.4044,2.72 l -0.18666,1.36 H 98.334941 82.51687 Z M 123.92084,50.496326 c 3.8099,-1.783398 6.60938,-5.40455 7.87594,-10.187561 1.85785,-7.015984 0.71246,-11.819833 -3.36788,-14.125072 l -1.63406,-0.923183 -2.67742,-0.307826 c -3.49686,-0.40204 -6.58821,-0.39591 -6.84128,0.01356 -0.21315,0.34489 -4.63614,25.25681 -4.63614,26.112481 v 0.499968 l 4.72,-0.11034 4.72,-0.110339 z"
       style="fill:#0e7add;stroke-width:0.31999999" />
    <path
       id="path855"
       d="m 483.52,88.133555 c -0.264,-0.09624 -1.092,-0.393574 -1.84,-0.660736 -1.49779,-0.534969 -1.65584,-0.956582 -0.76902,-2.051731 l 0.59097,-0.729818 1.33549,0.534365 c 1.84557,0.738445 3.95216,0.701463 4.66102,-0.08183 0.87197,-0.963536 0.49853,-1.71151 -1.25846,-2.520592 -4.04957,-1.864787 -4.48189,-2.147094 -5.04214,-3.292528 -1.90487,-3.894592 3.39705,-6.856701 8.18563,-4.57319 1.32592,0.632291 1.40985,0.920595 0.5815,1.997664 l -0.5808,0.755158 -0.99619,-0.515158 c -1.25414,-0.648535 -3.69466,-0.677792 -4.21523,-0.05053 -0.78259,0.942967 -0.21485,1.574963 2.3896,2.659962 1.40669,0.586022 2.97763,1.481497 3.49097,1.989942 l 0.93332,0.924442 v 1.435286 c 0,2.650679 -1.66119,4.045511 -5.0522,4.242122 -1.06396,0.06169 -2.15046,0.03342 -2.41446,-0.06283 z m 10.4,-0.183069 c -1.03814,-0.56782 -1.44,-1.277542 -1.44,-2.543203 v -1.19039 l 0.96707,-0.813735 c 0.588,-0.494764 1.72333,-0.962518 2.89639,-1.193302 l 1.92931,-0.379568 -0.0964,-0.675142 L 498.08,80.48 496.89923,80.38183 c -0.64941,-0.05399 -1.59593,0.116541 -2.10342,0.378967 l -0.92266,0.477133 -0.52339,-0.885991 -0.52336,-0.885993 1.1112,-0.529895 c 2.35923,-1.125043 5.36928,-1.069158 6.56026,0.121799 L 501.12,79.68 V 83.84 88 h -1.10112 c -0.6056,0 -1.17997,-0.127597 -1.27635,-0.283546 -0.0968,-0.15663 -0.71399,-0.0913 -1.37888,0.145956 -1.46759,0.523676 -2.59453,0.552502 -3.44365,0.08808 z m 4.25997,-3.262771 0.1,-1.189936 -0.9,0.215376 c -1.44199,0.345091 -2.01997,0.746301 -2.01997,1.402202 0,0.810989 0.85597,1.256672 1.88787,0.982989 L 498.08,85.877651 Z m 14.87161,3.27728 c -0.5784,-0.167203 -1.41852,-0.808768 -1.92,-1.46623 l -0.89158,-1.168947 0.0134,-1.944909 c 0.0221,-3.218375 1.34512,-4.910067 4.08086,-5.218426 2.83581,-0.319635 4.71776,1.236106 4.81261,3.978394 l 0.0531,1.535123 -3.12,0.09159 c -1.716,0.05038 -3.12,0.210954 -3.12,0.356845 0,0.145891 0.29847,0.644678 0.66323,1.108413 L 514.2865,86.08 h 1.27779 c 0.70281,0 1.55142,-0.146435 1.88585,-0.325411 l 0.60804,-0.325415 0.54563,0.832724 0.54563,0.832723 -0.45472,0.291542 c -1.35344,0.867802 -3.78179,1.116887 -5.6431,0.578832 z M 516.48,81.344 C 516.48,80.562102 515.86054,80 514.99885,80 514.19251,80 513.28,80.776595 513.28,81.462858 V 81.92 h 1.6 1.6 z m 22.56,6.372656 c -1.71888,-0.791347 -2.54339,-2.260787 -2.5343,-4.516656 0.01,-2.417232 0.763,-3.729437 2.60979,-4.546365 l 1.47008,-0.650278 1.62269,0.192182 c 2.75606,0.326416 4.35075,2.160701 4.35075,5.004461 0,3.91199 -3.83223,6.21399 -7.51901,4.516656 z m 4.15178,-2.580765 C 543.46029,84.61663 543.68,83.745482 543.68,83.2 c 0,-0.545482 -0.21971,-1.41663 -0.48822,-1.935891 L 542.70355,80.32 h -1.06217 c -1.52244,0 -2.24445,0.92649 -2.24445,2.88 0,1.95351 0.72201,2.88 2.24445,2.88 h 1.06217 z m 7.36822,2.580765 c -1.71888,-0.791347 -2.54339,-2.260787 -2.5343,-4.516656 0.01,-2.417232 0.763,-3.729437 2.60979,-4.546365 l 1.47008,-0.650278 1.62269,0.192182 c 2.75606,0.326416 4.35075,2.160701 4.35075,5.004461 0,3.91199 -3.83223,6.21399 -7.51901,4.516656 z m 4.15178,-2.580765 C 554.98029,84.61663 555.2,83.745482 555.2,83.2 c 0,-0.545482 -0.21971,-1.41663 -0.48822,-1.935891 L 554.22355,80.32 h -1.06217 c -1.52244,0 -2.24445,0.92649 -2.24445,2.88 0,1.95351 0.72201,2.88 2.24445,2.88 h 1.06217 z m 6.54432,2.457277 -1.07853,-0.726829 -0.43898,-1.554182 c -1.14393,-4.050195 1.56717,-7.727146 5.25603,-7.128525 L 566.08,78.359763 V 75.819882 73.28 h 0.44 c 0.24202,0 0.89002,-0.09 1.44,-0.2 l 1,-0.2 V 80.44 88 h -1.28 c -0.704,0 -1.28,-0.136653 -1.28,-0.30367 0,-0.167021 -0.49936,-0.09502 -1.10973,0.16 -1.57011,0.656041 -2.78806,0.576592 -4.03417,-0.263162 z m 4.43769,-1.785478 0.41379,-0.262509 -0.0938,-2.692589 L 565.92,80.16 l -1.1129,0.05511 c -1.96921,0.09752 -3.0448,2.502182 -2.11478,4.728028 l 0.47501,1.136858 1.05635,-0.0049 c 0.58096,-0.0026 1.24253,-0.12303 1.47011,-0.267411 z M 504,84.32 v -3.68 h -0.64 -0.64 V 79.52 78.4 h 0.60368 0.60365 l 0.22128,-1.52 c 0.40569,-2.786995 1.99437,-4.122374 4.56022,-3.833165 1.74976,0.197223 1.77293,0.223146 1.33107,1.490637 l -0.36297,1.041254 -0.79571,-0.152108 C 507.83584,75.226781 506.88,76.188422 506.88,77.44 v 0.96 h 1.28 1.28 v 0.613827 c 0,1.223818 -0.36477,1.626173 -1.47424,1.626173 H 506.88 V 84.32 88 H 505.44 504 Z m 22.4,-3.2 v -6.88 h 4.65933 4.65929 l -0.0993,1.2 -0.0993,1.2 -3.12,0.09159 -3.12,0.09159 V 78.411587 80 h 2.75731 2.75735 l -0.19296,0.72 c -0.10615,0.396 -0.19492,0.972 -0.19732,1.28 l -0.004,0.56 h -2.56 -2.56 V 85.28 88 h -1.44 -1.44 z m -5.6,-11.408771 c -4.09395,-0.359242 -9.63146,-1.754675 -14.54992,-3.666519 l -3.87354,-1.505686 7.13172,-3.566499 c 3.92246,-1.961578 8.16486,-4.170858 9.42758,-4.909514 1.26269,-0.738656 2.37638,-1.343011 2.47482,-1.343011 0.68451,0 20.04976,-12.271082 20.66934,-13.097437 0.088,-0.117369 0.664,-0.562374 1.28,-0.988899 2.28691,-1.583491 8.86538,-7.156506 7.67392,-6.501062 -0.65581,0.360787 -3.31389,2.139024 -3.51392,2.350803 -0.95344,1.009433 -12.6383,8.439734 -21.12,13.430038 -1.42144,0.83633 -11.06426,5.446557 -11.39206,5.446557 -0.0922,0 -0.91466,0.339018 -1.82775,0.75337 -0.91312,0.414352 -3.02819,1.291491 -4.70019,1.949196 -1.672,0.657706 -3.5129,1.398688 -4.09085,1.646631 C 503.81117,59.957139 503.1425,60.16 502.90317,60.16 h -0.43511 l 0.29562,-1.36 c 0.79661,-3.664723 1.04198,-4.609158 1.87142,-7.202986 2.05687,-6.43223 5.49866,-12.620137 8.69264,-15.628265 3.01485,-2.839418 8.23175,-6.350128 12.44135,-8.372387 5.84387,-2.807334 12.84793,-4.525478 21.90845,-5.374292 2.66822,-0.249965 9.98419,-2.057844 13.12246,-3.242739 4.2095,-1.589363 7.42832,-3.610945 8.56112,-5.376861 l 0.61741,-0.96247 -0.17491,4.96 c -0.26266,7.449312 -1.45959,15.094579 -3.25636,20.8 -0.90224,2.864941 -3.11123,7.771994 -3.92547,8.72 -0.26454,0.308 -0.37456,0.56 -0.24451,0.56 0.13008,0 -0.17645,0.54 -0.68118,1.2 -0.50474,0.66 -1.34484,1.835709 -1.86692,2.612685 -1.48451,2.209389 -6.75817,7.594281 -9.41753,9.616144 -6.70759,5.099667 -13.84336,7.848141 -22.41165,8.632227 -2.024,0.185216 -3.752,0.317456 -3.84,0.293862 -0.088,-0.02358 -1.6,-0.169251 -3.36,-0.323689 z"
       style="fill:#69bd2d;stroke-width:0.31999999" />
    <path
       id="path853"
       d="M 8.8,118.58644 C 4.2830947,116.57029 4.4497222,109.92256 9.060832,108.18036 L 9.9616637,107.84 H 294.88 579.79834 l 0.90083,0.34036 c 2.05053,0.77474 3.62083,3.05578 3.62083,5.25964 0,2.20386 -1.5703,4.4849 -3.62083,5.25964 L 579.79834,119.04 294.77917,119.02748 9.76,119.01495 Z M 483.80896,87.990915 c -0.80909,-0.134121 -1.92752,-0.479894 -2.48538,-0.768384 l -1.01433,-0.524525 0.31465,-0.549001 c 0.17306,-0.301952 0.44439,-0.742586 0.60292,-0.979181 l 0.28825,-0.430176 1.03802,0.536771 c 1.22976,0.635946 4.27469,0.738064 4.96345,0.166458 C 487.78243,85.222195 488,84.6516 488,84.17489 488,83.238557 487.953,83.205162 484.46064,81.662486 481.93542,80.547011 480.96,79.440739 480.96,77.69223 v -1.261462 l 0.89491,-0.894909 c 1.65011,-1.650128 5.10685,-1.860153 7.78883,-0.473232 l 0.93655,0.484295 -0.54672,0.925504 -0.54672,0.925504 -0.83447,-0.43153 c -1.2832,-0.663565 -2.96646,-0.884061 -3.93571,-0.515549 L 483.84,76.78416 v 0.800544 c 0,0.94664 0.70336,1.459194 3.35606,2.445667 1.05386,0.391895 2.31386,1.110304 2.8,1.596467 l 0.88394,0.88393 v 1.421462 c 0,3.040564 -2.96083,4.740042 -7.07104,4.058685 z m 10.67741,0.09136 c -0.97011,-0.170086 -2.00637,-1.564941 -2.00637,-2.70071 0,-1.633527 2.3239,-3.346686 4.86112,-3.351943 1.01005,-0.0022 0.79905,-0.252375 0.92561,-1.124781 -0.63002,-0.660067 -1.09935,-0.671613 -2.90199,-0.426812 l -1.43527,0.506685 -0.40473,-0.553517 c -0.60992,-0.834138 -0.5209,-0.975594 0.95526,-1.517815 2.4905,-0.914796 4.77379,-0.808688 5.85456,0.272074 L 501.12,79.970909 V 83.985456 88 h -1.08576 c -0.6809,0 -1.10302,0.02902 -1.2212,-0.278988 l -0.26804,-0.119868 -0.59316,0.0013 c -0.83709,0.52153 -2.43386,0.660677 -3.46547,0.479813 z m 3.2528,-1.994352 0.34083,-0.210272 0.1,-1.189936 0.1,-1.189936 -0.86851,0.12487 c -1.4304,0.232119 -2.32668,0.772022 -2.05146,1.643204 0.29173,0.923444 0.68824,1.206105 2.37917,0.82207 z m 16.0728,1.889187 c -0.76205,-0.127507 -1.61203,-0.589462 -2.24,-1.217443 L 510.56,85.747693 V 83.2 80.652307 l 0.98816,-0.98816 c 1.83952,-1.83951 4.9616,-1.837661 6.61184,0.0039 l 0.88,0.982035 v 1.434954 1.43495 H 516 512.96 v 0.568797 c 0,1.664243 1.75354,2.553027 3.89786,1.975626 l 1.31385,-0.353789 0.26925,0.424685 c 0.42214,0.665869 0.32742,1.135718 -0.28096,1.393417 -1.04176,0.441274 -3.11357,0.654919 -4.34803,0.448372 z M 516.8,81.671203 C 516.8,80.937222 515.72326,80 514.88,80 c -0.84326,0 -1.92,0.937222 -1.92,1.671203 0,0.136839 0.864,0.248797 1.92,0.248797 1.056,0 1.92,-0.111958 1.92,-0.248797 z m 23.52,6.348144 c -2.5312,-0.601721 -3.6776,-2.104022 -3.6776,-4.819347 0,-3.184266 1.7168,-4.845715 5.0072,-4.845715 2.5631,0 3.9464,1.009344 4.60723,3.361753 0.73408,2.61305 -0.76189,5.677415 -2.99024,6.125373 -0.56464,0.113504 -1.24259,0.251319 -1.50659,0.306259 -0.264,0.05494 -0.912,-0.0029 -1.44,-0.128323 z m 2.57456,-2.404803 0.62632,-1.209781 L 543.68,83.2 l -0.21216,-1.337365 -0.57328,-1.077179 c -0.94397,-0.943939 -2.23404,-0.286818 -2.48737,-0.200249 -0.36505,0.247582 -0.89454,0.775389 -0.97232,1.822478 L 539.36,83.2 l 0.23868,1.843944 c 0,0 1.25935,1.301259 0.80851,0.956492 1.20016,0.238063 1.38428,0.425444 2.48737,-0.385892 z m 8.94544,2.404803 c -2.5312,-0.601721 -3.6776,-2.104022 -3.6776,-4.819347 0,-3.184266 1.7168,-4.845715 5.0072,-4.845715 2.5631,0 3.9464,1.009344 4.60723,3.361753 0.73408,2.61305 -0.76189,5.677415 -2.99024,6.125373 -0.56464,0.113504 -1.24259,0.251319 -1.50659,0.306259 -0.264,0.05494 -0.912,-0.0029 -1.44,-0.128323 z M 554.41456,85.614544 555.2,84.829091 V 83.2 81.570909 l -0.78544,-0.785453 c -0.94397,-0.943939 -1.76458,-0.995242 -2.7791,-0.173728 L 550.88,81.223453 V 83.2 85.176547 l 0.75546,0.611725 c 1.01452,0.821514 1.83513,0.770211 2.7791,-0.173728 z m 8.30544,2.465203 c -2.07722,-0.365904 -3.04064,-1.877606 -3.03882,-4.768109 0.003,-3.304019 1.71063,-4.995603 5.00583,-4.956246 L 566.4,78.37584 v -2.547926 -2.547927 h 1.28 1.28 v 7.36 7.36 h -1.12 c -0.616,0 -1.12,-0.160793 -1.12,-0.357321 0,-0.22209 -0.27248,-0.274468 -0.72,-0.138397 -1.64896,0.501389 -2.6768,0.681718 -3.28,0.575465 z m 2.68419,-2.035213 1.01968,-0.355468 -0.0919,-2.764532 L 566.24,80.16 565.11002,80.06486 563.98,79.96971 l -0.75597,0.804701 c -0.51373,0.546848 -0.80483,1.313094 -0.90841,2.39127 l -0.15245,1.58657 0.82387,0.823872 c 0.93744,0.937449 1.02371,0.954166 2.41715,0.468409 z M 504.32,84.32 v -3.68 h -0.8 -0.8 V 79.52 78.4 h 0.8 0.8 v -1.310627 c 0,-2.522375 1.45206,-3.927488 4.01862,-3.888688 1.77908,0.02688 1.85933,0.09377 1.58916,1.323897 l -0.21312,0.970349 -0.88496,-0.176989 c -1.16733,-0.233465 -1.9497,0.563044 -1.9497,1.984916 V 78.4 h 1.31424 1.31424 l -0.19424,0.506173 c -0.10685,0.278393 -0.19424,0.782393 -0.19424,1.12 V 80.64 H 508 506.88 V 84.32 88 h -1.28 -1.28 z m 22.08,-3.2 v -6.88 h 4.48 4.83862 l -0.0138,1.027178 -0.0124,1.213699 L 532.32,76.48 h -3.04 V 78.24 80 h 2.65574 l 2.50573,0.01875 0.0193,1.101247 -0.13076,1.12 H 531.80499 529.28 V 85.12 88 h -1.44 -1.44 z m -6.24,-11.579043 c -4.8864,-0.626839 -11.0007,-2.308999 -15.17184,-4.174064 l -2.61162,-0.827869 4.21074,-2.158701 c 5.66391,-2.903686 13.69407,-6.967432 22.53756,-12.199189 2.84349,-1.682173 6.99614,-4.549424 7.34814,-4.750973 0.66298,-0.3796 3.464,-2.117451 7.08603,-4.868058 4.85574,-3.687496 13.4312,-9.861126 15.49864,-12.195466 4.53312,-5.118322 6.92289,-7.737728 9.47086,-12.71881 l 1.45002,-3.007827 -0.12634,4.005333 c -0.22288,7.673529 -1.74596,17.248437 -3.6898,22.950789 -0.80505,2.361737 -1.25558,2.875564 -3.22921,6.503468 -5.88468,10.817082 -15.80804,18.983572 -26.82336,22.074484 -4.72743,1.326515 -11.64394,1.919254 -15.94986,1.366883 z"
       style="fill:#308b0a;stroke-width:0.31999999" />
    <path
       id="path851"
       d="m 417.12,168.47298 c -0.176,-0.0553 -0.84109,-0.18734 -1.47795,-0.29339 l -1.15799,-0.19282 0.51546,-1.43338 0.51542,-1.43339 h 1.70359 c 2.14185,0 2.77613,-0.3414 3.58694,-1.9307 l 0.64752,-1.2693 h -0.60304 -0.60304 l -2.16233,-5.68 c -1.18928,-3.124 -2.50359,-6.58 -2.92071,-7.68 l -0.75837,-2 h 2.34004 2.34006 l 1.73722,5.43605 c 0.95545,2.98983 1.80918,5.43683 1.89718,5.43777 0.088,9.6e-4 0.82314,-2.40928 1.6336,-5.35605 l 1.4736,-5.35777 2.2864,-0.094 c 1.25754,-0.0517 2.2864,-0.0348 2.2864,0.0377 0,0.49402 -5.00653,15.45998 -5.66541,16.93555 -1.03571,2.31941 -3.10157,4.2875 -4.78585,4.55936 -0.67581,0.10908 -1.51674,0.24708 -1.86874,0.30667 -0.352,0.0596 -0.784,0.0631 -0.96,0.008 z m -360.910838,-6.593 c -3.329652,-0.50616 -5.592532,-3.13637 -5.890349,-6.84654 -0.229344,-2.85715 0.365747,-4.77532 1.982221,-6.38935 1.549209,-1.54686 3.264476,-2.13114 6.228841,-2.12177 2.399719,0.008 3.53784,0.34827 5.071661,1.51817 2.850342,2.17407 3.490205,7.69215 1.279146,11.03118 -1.397732,2.11077 -5.18714,3.33799 -8.67152,2.80831 z m 4.161545,-3.64378 c 0.945783,-0.6197 1.505165,-2.75304 1.285088,-4.90099 -0.216134,-2.10949 -0.834137,-3.09282 -2.234166,-3.55487 l -1.081037,-0.35678 -1.250298,0.40822 L 55.84,150.24 l -0.580102,1.12 -0.580103,1.12 0.132199,2.08764 c 0.07271,1.14819 0.333753,2.42534 0.580102,2.8381 0.927658,1.5543 3.276048,1.94602 4.978611,0.83046 z m 25.35824,3.67079 c -3.853763,-0.62855 -6.042381,-3.32318 -6.047161,-7.44529 -0.0058,-4.99012 2.819193,-7.98031 7.518214,-7.95789 2.940464,0.014 4.94159,1.08756 6.077597,3.2604 0.554153,1.05994 0.925728,3.62086 0.672025,4.63169 L 93.747808,155.2 H 88.953904 84.16 v 0.75684 c 0,1.14279 1.161501,2.38658 2.587181,2.77048 l 1.272867,0.34275 1.669974,-0.44894 c 0.91849,-0.24692 1.893223,-0.54605 2.166077,-0.66475 l 0.496099,-0.21581 0.543901,1.14057 c 0.761648,1.59719 0.740515,1.64055 -1.136099,2.33086 -2.097616,0.77161 -4.127261,1.00549 -6.031053,0.69499 z M 89.92,151.85506 c 0,-0.99122 -0.771043,-2.07813 -1.705206,-2.40378 l -0.976989,-0.34059 -1.029635,0.33982 c -0.885312,0.29217 -2.04817,1.81254 -2.04817,2.67785 0,0.1054 1.296,0.19164 2.88,0.19164 h 2.88 z m 10.81299,10.03015 c -1.445208,-0.20483 -4.02362,-1.16144 -4.676961,-1.73518 -0.175549,-0.15416 1.629837,-2.73765 1.833267,-2.62339 2.240674,1.25847 5.246624,1.82706 6.398914,1.21037 l 0.71015,-0.38006 -0.0992,-0.85847 -0.0992,-0.85848 -2.88,-0.97335 c -1.584,-0.53535 -3.202509,-1.15162 -3.596688,-1.36949 C 97.337258,153.75214 96.64,152.28161 96.64,150.74703 v -1.28476 l 0.975994,-1.1116 c 0.5368,-0.61138 1.487708,-1.28047 2.113132,-1.48688 2.195804,-0.72468 6.389244,-0.34829 8.340374,0.74862 l 0.70951,0.39887 -0.80711,1.35348 -0.80712,1.35346 -0.93687,-0.48447 c -2.21673,-1.14632 -5.10791,-0.8754 -5.10791,0.47862 0,0.78047 0.18041,0.88104 2.96425,1.65249 1.27349,0.3529 2.76818,0.92145 3.32153,1.26343 1.97951,1.22341 2.56767,4.13169 1.2441,6.15172 -1.12926,1.72347 -4.42568,2.60003 -7.91689,2.1052 z m 25.55617,-0.005 c -3.32965,-0.50616 -5.59253,-3.13638 -5.89035,-6.84655 -0.22934,-2.85715 0.36575,-4.77532 1.98222,-6.38934 1.54921,-1.54687 3.26448,-2.13115 6.22885,-2.12178 2.39971,0.008 3.53784,0.34827 5.07166,1.51818 2.85034,2.17406 3.4902,7.69215 1.27914,11.03117 -1.39773,2.11078 -5.18714,3.338 -8.67152,2.80832 z m 4.16155,-3.64379 c 0.94578,-0.61969 1.50516,-2.75304 1.28509,-4.90098 -0.21614,-2.1095 -0.83414,-3.09283 -2.23417,-3.55488 l -1.08104,-0.35677 -1.2503,0.40822 -1.25029,0.4082 -0.5801,1.12 -0.5801,1.12 0.13219,2.08764 c 0.0727,1.14819 0.33376,2.42534 0.58011,2.8381 0.92765,1.5543 3.27604,1.94602 4.97861,0.83046 z m 30.0226,3.70149 c -2.24054,-0.52584 -3.35331,-1.91348 -3.35331,-4.18162 v -1.25381 l 0.95767,-1.09073 c 1.2282,-1.39884 3.5384,-2.38556 6.29908,-2.69043 L 166.56,152.48 l 0.10009,-0.70349 c 0.35694,-2.50867 -2.26383,-2.87078 -6.70189,-0.92601 l -0.5218,0.22866 -0.73206,-1.18449 -0.73205,-1.18449 0.59471,-0.43487 c 1.386,-1.01347 4.17408,-1.76946 6.56938,-1.78129 l 2.41638,-0.0119 1.28056,0.65329 c 0.70431,0.35931 1.48529,1.06085 1.73552,1.55896 l 0.45496,0.90567 0.11257,6.16 0.11256,6.16 h -1.94446 c -1.06946,0 -1.94667,-0.108 -1.94937,-0.24 -0.003,-0.132 -0.12117,-0.42319 -0.26327,-0.6471 l -0.25838,-0.4071 -1.41672,0.60877 c -1.7129,0.73604 -3.63703,1.00972 -4.94342,0.70312 z m 5.13697,-3.36136 1.10972,-0.46367 v -1.61633 c 0,-1.78217 0.0442,-1.7563 -2.18284,-1.27869 -2.52394,0.54129 -3.66142,2.09239 -2.4343,3.31951 0.62839,0.6284 2.05898,0.64438 3.50742,0.0392 z m 23.47867,3.33066 c -3.85377,-0.62855 -6.04238,-3.32318 -6.04716,-7.44528 -0.006,-4.99012 2.81919,-7.98032 7.51821,-7.9579 2.94046,0.014 4.94159,1.08756 6.0776,3.26041 0.55415,1.05994 0.92572,3.62085 0.67202,4.63168 L 197.10781,155.2 H 192.3139 187.52 v 0.75684 c 0,1.14279 1.1615,2.38658 2.58718,2.77048 l 1.27287,0.34275 1.66997,-0.44894 c 0.91849,-0.24692 1.89322,-0.54605 2.16608,-0.66475 l 0.4961,-0.21581 0.5439,1.14057 c 0.76165,1.59719 0.74051,1.64055 -1.1361,2.33086 -2.09762,0.77161 -4.12726,1.00549 -6.03105,0.69499 z M 193.28,151.85506 c 0,-0.99122 -0.77104,-2.07813 -1.70521,-2.40378 l -0.97699,-0.34059 -1.02963,0.33982 c -0.88531,0.29217 -2.04817,1.81254 -2.04817,2.67785 0,0.1054 1.296,0.19164 2.88,0.19164 h 2.88 z m 10.81299,10.03015 c -1.44521,-0.20483 -4.02362,-1.16144 -4.67696,-1.73518 -0.17555,-0.15416 1.62984,-2.73765 1.83327,-2.62339 2.24067,1.25847 5.24662,1.82706 6.39891,1.21037 l 0.71015,-0.38006 -0.0992,-0.85847 -0.0992,-0.85848 -2.88,-0.97335 c -1.584,-0.53535 -3.20251,-1.15162 -3.59669,-1.36949 C 200.69726,153.75214 200,152.28161 200,150.74703 v -1.28476 l 0.97599,-1.1116 c 0.5368,-0.61138 1.48771,-1.28047 2.11314,-1.48688 2.1958,-0.72468 6.38924,-0.34829 8.34037,0.74862 l 0.70951,0.39887 -0.80711,1.35348 -0.80712,1.35346 -0.93687,-0.48447 c -2.21673,-1.14632 -5.10791,-0.8754 -5.10791,0.47862 0,0.78047 0.18041,0.88104 2.96425,1.65249 1.27349,0.3529 2.76818,0.92145 3.32153,1.26343 1.97951,1.22341 2.56767,4.13169 1.2441,6.15172 -1.12926,1.72347 -4.42568,2.60003 -7.91689,2.1052 z m 24.67596,0.0218 c -3.85377,-0.62854 -6.04238,-3.32317 -6.04716,-7.44528 -0.006,-4.99012 2.81919,-7.98031 7.51821,-7.95789 2.94046,0.014 4.94159,1.08756 6.0776,3.2604 0.55415,1.05994 0.92572,3.62086 0.67202,4.63169 L 236.78781,155.2 H 231.9939 227.2 v 0.75684 c 0,1.14279 1.1615,2.38658 2.58718,2.77048 l 1.27287,0.34275 1.66997,-0.44894 c 0.91849,-0.24692 1.89322,-0.54605 2.16608,-0.66475 l 0.4961,-0.21581 0.5439,1.14057 c 0.76165,1.59719 0.74051,1.64055 -1.1361,2.33086 -2.09762,0.77161 -4.12726,1.00549 -6.03105,0.69499 z M 232.96,151.85506 c 0,-0.99122 -0.77104,-2.07813 -1.70521,-2.40378 l -0.97699,-0.34059 -1.02963,0.33982 c -0.88531,0.29217 -2.04817,1.81254 -2.04817,2.67785 0,0.1054 1.296,0.19164 2.88,0.19164 h 2.88 z m 59.77299,10.03015 c -1.44521,-0.20483 -4.02362,-1.16144 -4.67696,-1.73518 -0.17555,-0.15416 1.62984,-2.73765 1.83327,-2.62339 2.24067,1.25847 5.24662,1.82706 6.39891,1.21037 l 0.71015,-0.38006 -0.0992,-0.85847 -0.0992,-0.85848 -2.88,-0.97335 c -1.584,-0.53535 -3.20251,-1.15162 -3.59669,-1.36949 -0.98605,-0.54502 -1.68331,-2.01555 -1.68331,-3.55013 v -1.28476 l 0.97599,-1.1116 c 0.5368,-0.61138 1.48771,-1.28047 2.11314,-1.48688 2.1958,-0.72468 6.38924,-0.34829 8.34037,0.74862 l 0.70951,0.39887 -0.80711,1.35348 -0.80712,1.35346 -0.93687,-0.48447 c -2.21673,-1.14632 -5.10791,-0.8754 -5.10791,0.47862 0,0.78047 0.18041,0.88104 2.96425,1.65249 1.27349,0.3529 2.76818,0.92145 3.32153,1.26343 1.97951,1.22341 2.56767,4.13169 1.2441,6.15172 -1.12926,1.72347 -4.42568,2.60003 -7.91689,2.1052 z m 16.99596,0.0218 c -3.85377,-0.62854 -6.04238,-3.32317 -6.04716,-7.44528 -0.006,-4.99012 2.81919,-7.98031 7.51821,-7.95789 2.94046,0.014 4.94159,1.08756 6.0776,3.2604 0.55415,1.05994 0.92572,3.62086 0.67202,4.63169 L 317.74781,155.2 H 312.9539 308.16 v 0.75684 c 0,1.14279 1.1615,2.38658 2.58718,2.77048 l 1.27287,0.34275 1.66997,-0.44894 c 0.91849,-0.24692 1.89322,-0.54605 2.16608,-0.66475 l 0.4961,-0.21581 0.5439,1.14057 c 0.76165,1.59719 0.74051,1.64055 -1.1361,2.33086 -2.09762,0.77161 -4.12726,1.00549 -6.03105,0.69499 z M 313.92,151.85506 c 0,-0.99122 -0.77104,-2.07813 -1.70521,-2.40378 l -0.97699,-0.34059 -1.02963,0.33982 c -0.88531,0.29217 -2.04817,1.81254 -2.04817,2.67785 0,0.1054 1.296,0.19164 2.88,0.19164 h 2.88 z m 10.81299,10.03015 c -1.44521,-0.20483 -4.02361,-1.16144 -4.67696,-1.73518 -0.17555,-0.15416 1.62983,-2.73765 1.83328,-2.62339 2.24064,1.25847 5.24663,1.82706 6.39891,1.21037 l 0.71015,-0.38006 -0.0992,-0.85847 -0.0992,-0.85848 -2.88,-0.97335 c -1.584,-0.53535 -3.2025,-1.15162 -3.59667,-1.36949 -0.98608,-0.54502 -1.68333,-2.01555 -1.68333,-3.55013 v -1.28476 l 0.976,-1.1116 c 0.5368,-0.61138 1.48771,-1.28047 2.11312,-1.48688 2.19581,-0.72468 6.38925,-0.34829 8.34038,0.74862 l 0.70951,0.39887 -0.80711,1.35348 -0.80713,1.35346 -0.93687,-0.48447 c -2.21673,-1.14632 -5.1079,-0.8754 -5.1079,0.47862 0,0.78047 0.18042,0.88104 2.96426,1.65249 1.2735,0.3529 2.76819,0.92145 3.32153,1.26343 1.97949,1.22341 2.56765,4.13169 1.2441,6.15172 -1.12928,1.72347 -4.4257,2.60003 -7.9169,2.1052 z m 16.91616,-0.005 c -3.32963,-0.50616 -5.59251,-3.13638 -5.89033,-6.84655 -0.22935,-2.85715 0.36576,-4.77532 1.9822,-6.38934 1.54922,-1.54687 3.26448,-2.13115 6.22887,-2.12178 2.39971,0.008 3.53782,0.34827 5.07165,1.51818 2.85033,2.17406 3.4902,7.69215 1.27913,11.03117 -1.39773,2.11078 -5.18713,3.338 -8.67152,2.80832 z m 4.16157,-3.64379 c 0.94576,-0.61969 1.50515,-2.75304 1.28509,-4.90098 -0.21616,-2.1095 -0.83415,-3.09283 -2.23418,-3.55488 l -1.08105,-0.35677 -1.25028,0.40822 -1.2503,0.40821 -0.5801,1.12 -0.58009,1.12 0.13219,2.08764 c 0.0727,1.1482 0.33376,2.42535 0.5801,2.8381 0.92764,1.5543 3.27603,1.94603 4.97862,0.83046 z m 33.22259,3.70149 c -2.24054,-0.52584 -3.35331,-1.91348 -3.35331,-4.18162 v -1.25381 l 0.95766,-1.09073 c 1.2282,-1.39884 3.5384,-2.38556 6.29908,-2.69043 L 385.12,152.48 l 0.1001,-0.70349 c 0.35692,-2.50867 -2.26384,-2.87078 -6.70189,-0.92601 l -0.52183,0.22866 -0.73203,-1.18449 -0.73206,-1.18449 0.59472,-0.43487 c 1.38598,-1.01347 4.17408,-1.76946 6.56937,-1.78129 l 2.41639,-0.0119 1.28054,0.65329 c 0.70432,0.35931 1.48531,1.06085 1.73552,1.55896 l 0.45498,0.90567 0.11254,6.16 0.11258,6.16 h -1.94445 c -1.06947,0 -1.94669,-0.108 -1.94938,-0.24 -0.003,-0.132 -0.12118,-0.42319 -0.26326,-0.6471 l -0.2584,-0.4071 -1.4167,0.60877 c -1.7129,0.73604 -3.63703,1.00972 -4.94343,0.70312 z m 5.13696,-3.36136 1.10973,-0.46367 v -1.61633 c 0,-1.78217 0.0442,-1.7563 -2.18285,-1.27869 -2.52393,0.54129 -3.66141,2.09239 -2.4343,3.31951 0.62841,0.6284 2.05901,0.64438 3.50742,0.0392 z m 12.88272,3.30889 c -1.44521,-0.20484 -4.02361,-1.16145 -4.67696,-1.73519 -0.17555,-0.15416 1.62983,-2.73764 1.83328,-2.62339 2.24064,1.25848 5.24663,1.82706 6.39891,1.21038 l 0.71015,-0.38006 -0.0992,-0.85848 -0.0992,-0.85848 -2.88,-0.97335 c -1.584,-0.53535 -3.2025,-1.15162 -3.59667,-1.36949 -0.98608,-0.54502 -1.68333,-2.01554 -1.68333,-3.55013 v -1.28476 l 0.976,-1.1116 c 0.5368,-0.61137 1.48771,-1.28047 2.11312,-1.48688 2.19581,-0.72468 6.38925,-0.34828 8.34038,0.74862 l 0.70951,0.39888 -0.80711,1.35347 -0.80713,1.35347 -0.93687,-0.48448 c -2.21673,-1.14631 -5.1079,-0.8754 -5.1079,0.47863 0,0.78046 0.18042,0.88104 2.96426,1.65248 1.2735,0.3529 2.76819,0.92145 3.32153,1.26344 1.97949,1.2234 2.56765,4.13169 1.2441,6.15171 -1.12928,1.72347 -4.4257,2.60003 -7.9169,2.10521 z m 48.43696,0.009 c -1.84864,-0.23892 -6.12995,-1.90124 -6.12995,-2.3801 0,-0.10954 0.43312,-0.82868 0.9625,-1.5981 l 0.96249,-1.39894 1.76131,0.77894 c 4.27098,1.88883 8.7937,1.04958 8.7937,-1.63179 0,-1.08219 -1.21402,-1.93465 -4.95952,-3.4825 -3.93971,-1.6281 -4.80346,-2.17512 -5.84048,-3.69883 l -0.72,-1.0579 v -1.58431 c 0,-3.88032 2.85664,-6.03499 8.01613,-6.04628 2.44249,-0.005 5.27296,0.73341 6.90361,1.80185 l 0.75687,0.49593 -1.00647,1.52097 -1.00643,1.52097 -1.59638,-0.79004 c -2.9152,-1.44271 -6.55959,-1.22553 -7.31664,0.43603 l -0.36147,0.79331 0.50291,0.76755 c 0.29264,0.44662 1.41549,1.13685 2.68541,1.65075 1.20035,0.48575 3.23116,1.38044 4.51289,1.9882 l 2.33047,1.105 0.82153,1.24146 0.82157,1.24146 v 1.88991 c 0,4.09612 -2.26714,5.98789 -7.904,6.59536 -0.528,0.0569 -1.8735,-0.0146 -2.99005,-0.1589 z m 19.75901,0.0124 c -3.85379,-0.62855 -6.0424,-3.32318 -6.04717,-7.44529 -0.006,-4.99012 2.8192,-7.98031 7.51821,-7.95789 2.94045,0.014 4.9416,1.08756 6.0776,3.2604 0.55414,1.05994 0.92573,3.62086 0.67203,4.63169 L 473.26781,155.2 H 468.47389 463.68 v 0.75684 c 0,1.14279 1.1615,2.38658 2.58717,2.77048 l 1.27286,0.34275 1.66999,-0.44894 c 0.91849,-0.24692 1.89321,-0.54605 2.16608,-0.66475 l 0.49609,-0.21581 0.54391,1.14057 c 0.76166,1.59719 0.74051,1.64055 -1.1361,2.33086 -2.09763,0.77161 -4.12726,1.00549 -6.03104,0.69499 z M 469.44,151.85506 c 0,-0.99122 -0.77104,-2.07813 -1.70522,-2.40378 l -0.97699,-0.34059 -1.02963,0.33982 c -0.88531,0.29217 -2.04816,1.81254 -2.04816,2.67785 0,0.1054 1.296,0.19164 2.88,0.19164 h 2.88 z m 50.52896,10.05992 c -4.07018,-0.68596 -5.97971,-3.38685 -5.65254,-7.99498 0.3336,-4.69851 3.23017,-7.41647 7.90384,-7.41647 2.03891,0 4.81974,0.78059 4.81974,1.35292 0,0.14683 -0.30701,0.78731 -0.68224,1.42328 l -0.68224,1.15632 -0.51776,-0.22251 c -0.28477,-0.12238 -1.33994,-0.29138 -2.34486,-0.37555 l -1.82708,-0.15304 -0.9455,0.9455 c -1.66058,1.66059 -1.77142,5.54391 -0.20298,7.11235 l 0.81722,0.8172 1.6727,-9.6e-4 c 0.92,-6.4e-4 2.12487,-0.23363 2.67748,-0.51788 l 1.00476,-0.51683 0.70327,1.25132 0.70329,1.25133 -0.37267,0.44902 c -0.84973,1.02387 -4.78646,1.82468 -7.07443,1.43908 z m 23.92019,-0.035 c -3.32963,-0.50616 -5.59251,-3.13637 -5.89033,-6.84654 -0.22935,-2.85715 0.36576,-4.77532 1.9822,-6.38935 1.54922,-1.54686 3.26448,-2.13114 6.22887,-2.12177 2.39971,0.008 3.53782,0.34827 5.07165,1.51817 2.85033,2.17407 3.4902,7.69215 1.27913,11.03118 -1.39773,2.11077 -5.18713,3.33799 -8.67152,2.80831 z m 4.16157,-3.64378 c 0.94576,-0.6197 1.50515,-2.75304 1.28509,-4.90099 -0.21616,-2.10949 -0.83415,-3.09282 -2.23418,-3.55487 l -1.08105,-0.35678 -1.25028,0.40822 -1.2503,0.40822 -0.5801,1.12 -0.58009,1.12 0.13219,2.08764 c 0.0727,1.14819 0.33376,2.42534 0.5801,2.8381 0.92764,1.5543 3.27603,1.94602 4.97862,0.83046 z m 12.52227,3.64901 c -1.44521,-0.20483 -4.02361,-1.16144 -4.67696,-1.73518 -0.17555,-0.15416 1.62983,-2.73765 1.83328,-2.62339 2.24064,1.25847 5.24663,1.82706 6.39891,1.21037 l 0.71015,-0.38006 -0.0992,-0.85847 -0.0992,-0.85848 -2.88,-0.97335 c -1.584,-0.53535 -3.2025,-1.15162 -3.59667,-1.36949 -0.98608,-0.54502 -1.68333,-2.01555 -1.68333,-3.55013 v -1.28476 l 0.976,-1.1116 c 0.5368,-0.61138 1.48771,-1.28047 2.11312,-1.48688 2.19581,-0.72468 6.38925,-0.34829 8.34038,0.74862 l 0.70951,0.39887 -0.80711,1.35348 -0.80713,1.35346 -0.93687,-0.48447 c -2.21673,-1.14632 -5.1079,-0.8754 -5.1079,0.47862 0,0.78047 0.18042,0.88104 2.96426,1.65249 1.2735,0.3529 2.76819,0.92145 3.32153,1.26343 1.97949,1.22341 2.56765,4.13169 1.2441,6.15172 -1.12928,1.72347 -4.4257,2.60003 -7.9169,2.1052 z M 19.2,150.83266 v -11.08735 l 5.257686,0.17367 5.257686,0.17367 1.736543,0.79502 c 5.516754,2.52565 5.298866,10.27046 -0.359804,12.78919 -0.895496,0.39859 -2.456518,0.68152 -4.4,0.79747 L 23.68,154.65403 v 3.63298 3.63299 H 21.44 19.2 Z m 10.142636,-0.73859 1.022637,-0.62355 0.212977,-1.13526 c 0.117137,-0.62439 0.117137,-1.64613 0,-2.27052 L 30.365273,144.92948 29.342636,144.30593 28.32,143.68239 26,143.6812 23.68,143.68 v 3.52 3.52 l 2.32,-0.001 2.32,-0.001 1.022636,-0.62354 z M 38.72,154.43732 v -7.48268 l 0.72,-0.19295 c 0.396,-0.10612 1.404,-0.19492 2.24,-0.19732 l 1.52,-0.004 v 1.01578 1.01578 l 0.72,-0.65579 c 0.396,-0.36069 1.051594,-0.82692 1.456877,-1.03607 0.751267,-0.38771 3.153529,-0.55596 3.466688,-0.2428 0.09502,0.095 0.07517,1.08409 -0.04411,2.19793 L 48.582576,150.88 H 46.717069 44.851562 L 44.025779,151.65578 43.2,152.43156 v 4.74422 4.74422 H 40.96 38.72 Z M 70.4,156 v -5.92 h -1.12 -1.12 v -1.76 -1.76 h 1.12 1.12 l 0.0019,-1.52 c 0.005,-4.24507 2.222787,-6.83516 5.880861,-6.86803 3.604035,-0.0324 4.086025,0.35268 3.269776,2.61224 l -0.39889,1.10421 -1.623251,-0.0862 -1.623248,-0.0862 -0.513517,0.73315 C 75.079642,142.89737 74.88,143.83897 74.88,144.8712 v 1.6888 h 1.96 1.96 l -0.2,1 c -0.11,0.55 -0.2,1.342 -0.2,1.76 v 0.76 h -1.76 -1.76 v 5.92 5.92 H 72.64 70.4 Z m 42.24,-1.56268 v -7.48268 l 0.72,-0.19295 c 0.396,-0.10612 1.404,-0.19492 2.24,-0.19732 l 1.52,-0.004 v 7.68 7.68 h -2.24 -2.24 z m 27.2,0 v -7.48268 l 0.72,-0.19295 c 0.396,-0.10612 1.404,-0.19492 2.24,-0.19732 l 1.52,-0.004 v 0.64 c 0,0.78294 -0.0881,0.78454 1.75781,-0.032 1.88085,-0.83199 4.93359,-0.91002 6.08506,-0.15554 0.43352,0.28405 1.04222,0.90361 1.35267,1.37681 l 0.56446,0.86036 0.10402,6.33518 0.10402,6.33519 H 152.02402 149.76 v -5.53884 -5.53884 l -0.4,-0.50031 c -0.61835,-0.77342 -1.73728,-0.89802 -3.46276,-0.38561 l -1.57724,0.46839 v 5.74761 5.7476 h -2.24 -2.24 z m 35.52,-4.16 v -11.64268 l 0.72,-0.19295 c 0.396,-0.10612 1.404,-0.19492 2.24,-0.19732 l 1.52,-0.004 v 11.84 11.84 h -2.24 -2.24 z m 65.28,4.16 v -7.48268 l 0.72,-0.19295 c 0.396,-0.10612 1.404,-0.19492 2.24,-0.19732 l 1.52,-0.004 v 0.64 c 0,0.78294 -0.0881,0.78454 1.75781,-0.032 1.88085,-0.83199 4.93359,-0.91002 6.08506,-0.15554 0.43352,0.28405 1.04222,0.90361 1.35267,1.37681 l 0.56446,0.86036 0.10402,6.33518 0.10402,6.33519 H 252.82402 250.56 v -5.53884 -5.53884 l -0.4,-0.50031 c -0.61835,-0.77342 -1.73728,-0.89802 -3.46276,-0.38561 l -1.57724,0.46839 v 5.74761 5.7476 h -2.24 -2.24 z M 265.40644,161.2 c 0.1077,-0.396 1.8906,-5.328 3.96199,-10.96 l 3.76616,-10.24 2.89685,-0.0913 2.89685,-0.0913 3.30153,9.05127 c 1.81585,4.9782 3.63975,9.95127 4.05311,11.05127 l 0.75157,2 h -2.49129 -2.49129 l -0.88581,-2.72 -0.88581,-2.72 h -4.28986 -4.28987 l -0.82965,2.72 -0.82965,2.72 h -2.41532 -2.41533 z m 12.19609,-12.60542 c -0.78468,-2.22498 -1.49887,-4.11759 -1.58708,-4.2058 -0.19027,-0.19026 -0.15514,-0.28026 -1.75279,4.49122 l -1.25898,3.76 h 3.01278 3.01278 z M 355.2,154.43732 v -7.48268 l 0.72,-0.19295 c 0.396,-0.10612 1.404,-0.19492 2.24,-0.19732 l 1.52,-0.004 v 1.01578 1.01578 l 0.72,-0.65579 c 0.396,-0.36069 1.05158,-0.82692 1.45686,-1.03607 0.7513,-0.38771 3.15354,-0.55596 3.46669,-0.2428 0.095,0.095 0.0752,1.08409 -0.0441,2.19793 l -0.21687,2.02517 h -1.86553 -1.86551 l -0.82576,0.77578 -0.82579,0.77578 v 4.74422 4.74422 h -2.24 -2.24 z m 13.12,0 v -7.48268 l 0.72,-0.19295 c 0.396,-0.10612 1.404,-0.19492 2.24,-0.19732 l 1.52,-0.004 v 7.68 7.68 h -2.24 -2.24 z m 108.8,0 v -7.48268 l 0.72,-0.19295 c 0.396,-0.10612 1.404,-0.19492 2.24,-0.19732 l 1.52,-0.004 v 1.01578 1.01578 l 0.72,-0.65579 c 0.396,-0.36069 1.05158,-0.82692 1.45686,-1.03607 0.7513,-0.38771 3.15354,-0.55596 3.46669,-0.2428 0.095,0.095 0.0752,1.08409 -0.0441,2.19793 l -0.21687,2.02517 h -1.86553 -1.86551 l -0.82576,0.77578 -0.82579,0.77578 v 4.74422 4.74422 h -2.24 -2.24 z M 493.78506,161.2 c -0.15351,-0.396 -1.44592,-3.72087 -2.87207,-7.3886 -1.42614,-3.66772 -2.59299,-6.80603 -2.59299,-6.97401 0,-0.17401 0.97536,-0.26497 2.26672,-0.21141 l 2.26675,0.094 1.56106,4.8 c 0.85859,2.64 1.56656,5.052 1.57328,5.36 0.0157,0.72089 0.65219,0.73753 0.65219,0.0171 0,-0.29863 0.59741,-2.74663 1.32758,-5.44 l 1.32756,-4.89706 h 2.35244 c 1.29383,0 2.35514,0.108 2.3585,0.24 0.003,0.132 -1.25075,3.588 -2.78685,7.68 l -2.79289,7.44 h -2.18109 -2.18109 z M 506.56,154.43732 v -7.48268 l 0.72,-0.19295 c 0.396,-0.10612 1.404,-0.19492 2.24,-0.19732 l 1.52,-0.004 v 7.68 7.68 h -2.24 -2.24 z m 23.68,0 v -7.48268 l 0.72,-0.19295 c 0.396,-0.10612 1.404,-0.19492 2.24,-0.19732 l 1.52,-0.004 v 7.68 7.68 h -2.24 -2.24 z M 367.88218,144.17944 c -0.2872,-0.43831 -0.51556,-0.90999 -0.50746,-1.04818 0.0134,-0.22665 4.31085,-3.74691 5.28813,-4.33166 0.26841,-0.16062 0.73568,0.30227 1.40793,1.39485 0.55341,0.89938 0.96186,1.67483 0.90772,1.7232 -0.25271,0.22567 -5.2968,2.66237 -5.89632,2.84839 l -0.67786,0.21032 z M 114.08,144.06041 C 112.90218,143.83165 112,142.69507 112,141.44 v -1.16844 l 0.80875,-0.75978 c 2.48973,-2.33898 6.35144,1.17592 4.01931,3.65835 -0.75308,0.80162 -1.67193,1.0993 -2.74806,0.89028 z m 393.92,0 c -1.17782,-0.22876 -2.08,-1.36534 -2.08,-2.62041 v -1.16844 l 0.80874,-0.75978 c 2.48976,-2.33898 6.35145,1.17592 4.01932,3.65835 -0.75308,0.80162 -1.67193,1.0993 -2.74806,0.89028 z m 23.68,0 c -1.17782,-0.22876 -2.08,-1.36534 -2.08,-2.62041 v -1.16844 l 0.80874,-0.75978 c 2.48976,-2.33898 6.35145,1.17592 4.01932,3.65835 -0.75308,0.80162 -1.67193,1.0993 -2.74806,0.89028 z M 8.8,118.58644 C 4.2830947,116.57029 4.4497222,109.92256 9.060832,108.18036 L 9.9616637,107.84 H 294.88 579.79834 l 0.90083,0.34036 c 2.05053,0.77474 3.62083,3.05578 3.62083,5.25964 0,2.20386 -1.5703,4.4849 -3.62083,5.25964 L 579.79834,119.04 294.77917,119.02748 9.76,119.01495 Z M 289.28,88.442435 c -2.5116,-0.306281 -6.39493,-1.185769 -9.19234,-2.081856 l -2.96766,-0.950627 2.2e-4,-0.544976 C 277.12034,84.565238 277.55224,81.872 278.08,78.88 c 0.52776,-2.992 0.95966,-5.476 0.95978,-5.52 1.2e-4,-0.044 0.8434,-0.08 1.87395,-0.08 h 1.87372 l 0.19231,2 c 0.28924,3.008112 1.05518,4.864413 2.67587,6.485101 l 1.43048,1.430483 2.23199,0.677946 2.23198,0.677945 3.28349,-0.121545 3.28348,-0.121546 2.10515,-1.036362 c 3.33017,-1.639436 4.7378,-4.036819 4.7378,-8.0691 V 73.04631 l -0.67157,-0.853763 c -1.02147,-1.298595 -3.2173,-2.256147 -9.24498,-4.031533 -8.24107,-2.427315 -11.01202,-4.075324 -12.51574,-7.443689 L 281.77892,59.04 281.79274,56 c 0.0427,-9.377149 5.35008,-16.455101 14.04726,-18.733322 2.64206,-0.692089 9.32566,-0.683046 13.44,0.01818 3.23681,0.551671 8.46228,1.929991 8.85198,2.334887 0.1166,0.121136 0.0235,1.228249 -0.20688,2.460249 -0.23038,1.232 -0.66678,3.644 -0.96978,5.36 l -0.5509,3.12 h -1.81981 -1.81981 l -0.40217,-2.39343 -0.40217,-2.393427 -1.02023,-1.513165 c -1.75035,-2.596026 -5.42153,-3.86728 -10.14023,-3.511341 -4.39921,0.33184 -6.92605,1.722717 -8.1701,4.497146 -0.97261,2.169065 -1.23192,3.992675 -0.79729,5.606793 l 0.35669,1.324647 1.28042,0.927526 c 1.14397,0.828688 6.01013,2.553434 12.29028,4.356125 7.69504,2.208832 10.68966,6.629248 9.72544,14.355898 -1.0378,8.316297 -5.72688,13.839456 -13.46815,15.863836 l -2.65729,0.694893 -4.48,0.10176 c -2.464,0.05597 -4.984,0.0403 -5.6,-0.03482 z m 43.2,0 c -2.51162,-0.306281 -6.39494,-1.185769 -9.19235,-2.081856 l -2.96765,-0.950627 2.2e-4,-0.544976 c 1.3e-4,-0.299738 0.432,-2.992976 0.95978,-5.984976 0.52778,-2.992 0.95965,-5.476 0.95978,-5.52 1.2e-4,-0.044 0.84339,-0.08 1.87395,-0.08 h 1.87373 l 0.19228,2 c 0.28925,3.008112 1.0552,4.864413 2.67588,6.485101 l 1.43049,1.430483 2.232,0.677946 2.23197,0.677945 3.28349,-0.121545 3.28349,-0.121546 2.16332,-1.065011 c 1.18986,-0.585754 2.25204,-1.303143 2.36042,-1.594192 0.10838,-0.29105 0.44698,-0.709258 0.75248,-0.929354 0.8087,-0.582669 1.69322,-3.47848 1.70544,-5.583504 l 0.0106,-1.82368 -0.65968,-0.89632 c -1.04566,-1.420841 -3.40134,-2.488739 -9.35702,-4.24183 -8.29159,-2.440682 -11.05856,-4.082845 -12.56493,-7.457168 L 324.97885,59.04 324.99261,56 c 0.0426,-9.377149 5.35008,-16.455101 14.04726,-18.733322 2.64205,-0.692089 9.32567,-0.683046 13.44,0.01818 3.2368,0.551671 8.46227,1.929991 8.852,2.334887 0.11658,0.121136 0.0234,1.228249 -0.20691,2.460249 -0.23037,1.232 -0.66675,3.644 -0.96976,5.36 l -0.55091,3.12 h -1.81981 -1.81981 l -0.40217,-2.39343 -0.40215,-2.393427 -1.02025,-1.513165 c -1.75034,-2.596035 -5.42154,-3.86729 -10.14023,-3.51135 -4.3992,0.33184 -6.92605,1.722716 -8.17011,4.497145 -1.53021,3.412615 -1.30208,6.246909 0.62083,7.713587 1.06675,0.813655 4.96195,2.37018 8.02039,3.204944 6.63097,1.809863 9.13068,2.853943 11.21558,4.684503 2.48909,2.18543 3.59155,6.217721 2.99875,10.967955 -1.04832,8.400515 -5.68957,13.799914 -13.67952,15.914038 l -2.44592,0.647188 -4.48,0.100515 c -2.464,0.05528 -4.984,0.03905 -5.6,-0.03607 z M 223.04,87.04 c 0,-0.352 0.12765,-0.64 0.28367,-0.64 0.15601,0 0.37984,-0.641331 0.49738,-1.425181 l 0.21372,-1.425184 1.91685,-0.09482 1.91685,-0.09482 12.43675,-22.88 12.43675,-22.88 3.63368,-0.0895 3.63368,-0.0895 1.73524,9.049504 c 0.95439,4.977229 1.85229,9.097504 1.99534,9.15617 0.14305,0.05867 0.25574,0.562668 0.25042,1.12 -0.005,0.557334 1.10734,6.809334 2.47259,13.893334 l 2.48227,12.88 h 2.2021 2.20209 l -0.17939,0.72 c -0.0987,0.396 -0.27668,1.332 -0.39559,2.08 l -0.2162,1.36 h -10.55543 -10.55544 l 0.21456,-1.52 c 0.11801,-0.836 0.28807,-1.772 0.3779,-2.08 l 0.16334,-0.56 h 2.16211 2.1621 l -0.96435,-5.12 -0.96434,-5.12 -8.49933,0.0092 -8.49932,0.0092 -2.56,4.797155 c -1.408,2.638432 -2.608,4.938275 -2.66667,5.110755 -0.0639,0.187741 0.9315,0.313607 2.48,0.313607 1.42267,0 2.58667,0.119984 2.58667,0.26663 0,0.146647 -0.16388,1.082647 -0.36418,2.08 L 236.71165,87.68 H 229.87582 223.04 Z m 30.657,-18.32 c -0.0757,-0.396 -0.8476,-4.572 -1.71537,-9.28 -0.86776,-4.708 -1.72263,-8.556138 -1.89969,-8.551418 C 249.79853,50.896134 240,68.732512 240,69.240848 240,69.350381 243.11279,69.44 246.91731,69.44 h 6.9173 z m 109.3381,17.12 c 0.12586,-1.012 0.29495,-1.948 0.37575,-2.08 0.0808,-0.132 1.41741,-0.24 2.97024,-0.24 h 2.82333 l 0.52726,-2.96 c 0.28998,-1.628 1.93856,-11.024 3.66349,-20.88 l 3.13625,-17.92 -2.86016,-0.09246 -2.86019,-0.09246 0.21271,-1.507536 C 371.14074,39.23839 371.30995,38.308 371.39978,38 l 0.16336,-0.56 h 20.2486 20.24861 l -1.00752,5.84 -1.00749,5.84 -2.16908,0.09522 -2.16906,0.09522 0.16979,-0.575223 c 0.0934,-0.316371 0.32602,-1.511222 0.5169,-2.655222 0.19091,-1.144 0.4263,-2.47816 0.5231,-2.964803 l 0.17597,-0.884803 -9.53027,0.0848 -9.53027,0.0848 -0.5529,3.04 c -0.3041,1.672 -0.56339,3.796 -0.57619,4.72 -0.0128,0.924 -0.13923,1.68 -0.28093,1.68 -0.14166,0 -0.44061,1.116 -0.66432,2.48 -0.22368,1.364 -0.48339,2.804 -0.57709,3.2 l -0.17037,0.72 h 5.92 5.92 l 0.16941,-0.72 c 0.0932,-0.396 0.34455,-1.836 0.55859,-3.2 l 0.38919,-2.48 h 2.03609 c 1.30378,0 2.0361,0.130442 2.0361,0.362669 0,0.342288 -2.36995,14.1512 -2.75242,16.037331 l -0.17843,0.88 h -2.05459 c -1.13002,0 -2.05456,-0.05933 -2.05456,-0.13185 0,-0.07252 0.21597,-1.260518 0.47994,-2.64 0.26396,-1.379481 0.47996,-2.76015 0.48,-3.06815 l 6e-5,-0.56 h -5.8472 -5.84717 l -0.89513,5.2 c -0.49236,2.86 -1.29344,7.468 -1.78023,10.24 l -0.88509,5.04 h 9.805 9.80499 l 0.59795,-3.68 0.59792,-3.68 h 2.02448 c 1.40637,0 2.02442,0.122128 2.02426,0.4 -1.3e-4,0.22 -0.432,2.848 -0.95978,5.84 -0.52778,2.992 -0.95965,5.476 -0.95978,5.52 -1.2e-4,0.044 -9.23283,0.08 -20.51708,0.08 h -20.51687 z m 47.04,0 c 0.12586,-1.012 0.29495,-1.948 0.37575,-2.08 0.0808,-0.132 1.41741,-0.24 2.97024,-0.24 h 2.82333 l 0.52726,-2.96 c 0.28998,-1.628 1.93856,-11.024 3.66349,-20.88 l 3.13625,-17.92 -2.86016,-0.09246 -2.86019,-0.09246 0.21271,-1.507536 c 0.11696,-0.829146 0.28937,-1.76959 0.3831,-2.089878 l 0.17043,-0.582343 14.93133,0.12297 14.93136,0.122966 1.84976,0.53785 c 6.47565,1.882909 9.22848,6.431968 7.92314,13.093037 -1.16068,5.922761 -5.14954,9.804937 -11.73744,11.423504 -1.38349,0.33991 -2.25773,0.628444 -1.94272,0.64119 0.89628,0.03626 2.86304,1.153754 3.79072,2.153862 1.2846,1.384861 1.69558,2.395613 3.63548,8.940778 0.98599,3.326691 2.01316,6.732528 2.2826,7.568528 l 0.48988,1.52 h 2.31972 2.31971 l -0.3617,2 -0.36169,2 h -7.46791 -7.46793 l -2.63472,-8.865171 c -2.924,-9.838608 -3.65434,-11.600909 -5.24423,-12.654365 L 434.78534,65.28 h -1.87267 c -1.02995,0 -1.87267,0.07377 -1.87267,0.163939 0,0.234903 -2.85811,16.492778 -3.05117,17.356061 l -0.16102,0.72 h 2.88608 2.88611 v 0.46425 c 0,0.255337 -0.15594,1.191337 -0.34653,2.08 L 432.90698,87.68 h -11.53037 -11.53034 z m 29.19572,-25.203165 c 4.21084,-1.250483 7.1159,-6.114265 7.12537,-11.929584 l 0.004,-2.332749 -0.62598,-1.226998 c -1.35507,-2.65617 -3.29552,-3.542861 -7.75952,-3.545718 l -2.78551,-0.0019 -0.18803,1.04 c -0.10342,0.572 -0.87446,4.964 -1.71341,9.76 l -1.52537,8.72 h 2.92083 c 1.67309,0 3.61587,-0.206404 4.54781,-0.483165 z"
       style="fill:#040403;stroke-width:0.31999999" />
  </g>
</svg>
